<svg xmlns="http://www.w3.org/2000/svg" version="1.1" xmlns:xlink="http://www.w3.org/1999/xlink" width="512" height="512" x="0" y="0" viewBox="0 0 512 512" style="enable-background:new 0 0 512 512" xml:space="preserve" class=""><g><path d="M100.34 271.14c0 11.88 9.66 21.54 21.54 21.54s21.54-9.66 21.54-21.54-9.66-21.54-21.54-21.54-21.54 9.66-21.54 21.54zm21.54-9.54c5.26 0 9.54 4.28 9.54 9.54s-4.28 9.54-9.54 9.54-9.54-4.28-9.54-9.54 4.28-9.54 9.54-9.54zm36.32-4.86c0-3.31 2.69-6 6-6h164.86c3.31 0 6 2.69 6 6s-2.69 6-6 6H164.2c-3.32 0-6-2.69-6-6zm0 28.8c0-3.31 2.69-6 6-6h24.5c3.31 0 6 2.69 6 6s-2.69 6-6 6h-24.5c-3.32 0-6-2.69-6-6zm121.27-6c3.31 0 6 2.69 6 6s-2.69 6-6 6h-62.43c-3.31 0-6-2.69-6-6s2.69-6 6-6zm-103.58-79.26h21.51v21.51c0 3.31 2.69 6 6 6H232c3.31 0 6-2.69 6-6v-21.51h21.51c3.31 0 6-2.69 6-6v-28.59c0-3.31-2.69-6-6-6H238v-21.51c0-3.31-2.69-6-6-6h-28.6c-3.31 0-6 2.69-6 6v21.51h-21.51c-3.31 0-6 2.69-6 6v28.59c0 3.31 2.69 6 6 6zm6-28.59h21.51c3.31 0 6-2.69 6-6v-21.51H226v21.51c0 3.31 2.69 6 6 6h21.51v16.59H232c-3.31 0-6 2.69-6 6v21.51h-16.6v-21.51c0-3.31-2.69-6-6-6h-21.51zm-60.01 152.7c-11.88 0-21.54 9.66-21.54 21.54s9.66 21.54 21.54 21.54 21.54-9.66 21.54-21.54-9.67-21.54-21.54-21.54zm0 31.07c-5.26 0-9.54-4.28-9.54-9.54s4.28-9.54 9.54-9.54 9.54 4.28 9.54 9.54-4.29 9.54-9.54 9.54zm36.32-23.94c0-3.31 2.69-6 6-6h137.59c3.31 0 6 2.69 6 6s-2.69 6-6 6H164.2c-3.32 0-6-2.69-6-6zm0 28.81c0-3.31 2.69-6 6-6h24.5c3.31 0 6 2.69 6 6s-2.69 6-6 6h-24.5c-3.32 0-6-2.69-6-6zm121.27-6c3.31 0 6 2.69 6 6s-2.69 6-6 6h-62.43c-3.31 0-6-2.69-6-6s2.69-6 6-6zm-157.59 44.84c-11.88 0-21.54 9.66-21.54 21.54s9.66 21.54 21.54 21.54 21.54-9.66 21.54-21.54-9.67-21.54-21.54-21.54zm0 31.07c-5.26 0-9.54-4.28-9.54-9.54s4.28-9.54 9.54-9.54 9.54 4.28 9.54 9.54-4.29 9.54-9.54 9.54zm36.32-23.93c0-3.31 2.69-6 6-6h139.58c3.31 0 6 2.69 6 6s-2.69 6-6 6H164.2c-3.32 0-6-2.69-6-6zm0 28.8c0-3.31 2.69-6 6-6h24.5c3.31 0 6 2.69 6 6s-2.69 6-6 6h-24.5c-3.32 0-6-2.69-6-6zm127.27 0c0 3.31-2.69 6-6 6h-62.43c-3.31 0-6-2.69-6-6s2.69-6 6-6h62.43c3.31 0 6 2.69 6 6zm196.26-68.76c0-43.53-33.85-79.27-76.6-82.36V75.24c0-16.52-13.44-29.95-29.95-29.95h-95.03V29.81c0-8.17-6.64-14.81-14.81-14.81h-95.28c-8.17 0-14.81 6.64-14.81 14.81v15.48H60.22c-16.52 0-29.95 13.44-29.95 29.95v391.81c0 16.52 13.44 29.95 29.95 29.95h314.95c16.52 0 29.95-13.44 29.95-29.95v-18.33c42.76-3.09 76.61-38.84 76.61-82.37zm-88.6-291.11v208.75a82.25 82.25 0 0 0-17.64 3.22V89.5c0-8.04-6.54-14.57-14.57-14.57h-33.27V57.29h47.53c9.89 0 17.95 8.05 17.95 17.95zM119.75 57.29h195.89v43.48c0 3.47-2.82 6.29-6.29 6.29h-183.3c-3.47 0-6.29-2.82-6.29-6.29V57.29zm6.3 61.77h183.3c10.09 0 18.29-8.21 18.29-18.29V86.93h33.27c1.39 0 2.57 1.18 2.57 2.57v202.34c-27.76 13.33-46.96 41.72-46.96 74.51s19.21 61.18 46.96 74.51v11.93c0 1.39-1.18 2.57-2.57 2.57H74.48c-1.39 0-2.57-1.18-2.57-2.57V89.5c0-1.39 1.18-2.57 2.57-2.57h33.27v13.84c0 10.08 8.21 18.29 18.3 18.29zm41.2-89.25c0-1.52 1.29-2.81 2.81-2.81h95.28c1.52 0 2.81 1.29 2.81 2.81v15.48h-100.9zM375.17 485H60.22c-9.9 0-17.95-8.05-17.95-17.95V75.24c0-9.9 8.05-17.95 17.95-17.95h47.53v17.64H74.48c-8.03 0-14.57 6.54-14.57 14.57v363.29c0 8.04 6.54 14.57 14.57 14.57h286.44c8.04 0 14.57-6.54 14.57-14.57v-7.3a82.25 82.25 0 0 0 17.64 3.22v18.33c0 9.91-8.06 17.96-17.96 17.96zm23.96-48.05c-38.93 0-70.6-31.67-70.6-70.6s31.67-70.6 70.6-70.6 70.6 31.67 70.6 70.6-31.67 70.6-70.6 70.6zm43.63-101.34a6 6 0 0 1 0 8.48l-52.99 52.99a5.991 5.991 0 0 1-8.48 0l-25.8-25.8c-2.34-2.34-2.34-6.14 0-8.49 2.34-2.34 6.14-2.34 8.49 0l21.56 21.55 48.75-48.75c2.33-2.32 6.13-2.32 8.47.02z" fill="#fc8211" opacity="1" data-original="#000000" class=""></path></g></svg>