<svg xmlns="http://www.w3.org/2000/svg" version="1.1" xmlns:xlink="http://www.w3.org/1999/xlink" width="512" height="512" x="0" y="0" viewBox="0 0 512 512" style="enable-background:new 0 0 512 512" xml:space="preserve" class=""><g><path d="M420.84 385.05V205.02h2.78c9.21 0 16.69-7.49 16.69-16.7v-28.18c0-9.21-7.49-16.69-16.69-16.69h-26.4v-23.54c0-6.7-5.45-12.15-12.15-12.15h-52.71c-6.7 0-12.15 5.45-12.15 12.15v23.54H191.78v-23.54c0-6.7-5.45-12.15-12.15-12.15h-52.71c-6.7 0-12.15 5.45-12.15 12.15v23.54h-26.4c-9.21 0-16.7 7.49-16.7 16.69v28.18c0 9.21 7.49 16.7 16.7 16.7h2.78v180.03c0 10.58 8.61 19.19 19.18 19.19h291.32c10.59 0 19.19-8.61 19.19-19.19zm-88.62-265.14c0-.07.08-.15.15-.15h52.71c.07 0 .15.08.15.15v23.54h-53v-23.54zm-205.44 0c0-.07.08-.15.15-.15h52.71c.07 0 .15.08.15.15v23.54h-53v-23.54zm-43.1 68.42v-28.18c0-2.59 2.11-4.69 4.7-4.69h335.24c2.59 0 4.69 2.11 4.69 4.69v28.18c0 2.59-2.11 4.7-4.69 4.7H88.38c-2.59-.01-4.7-2.11-4.7-4.7zm19.48 196.72V205.02h305.69v180.03c0 3.96-3.22 7.19-7.19 7.19H110.34c-3.96 0-7.18-3.23-7.18-7.19zm273.13-148.56c0 3.31-2.69 6-6 6h-6.32v6.32c0 3.31-2.69 6-6 6s-6-2.69-6-6v-6.32h-6.32c-3.31 0-6-2.69-6-6s2.69-6 6-6h6.32v-6.32c0-3.31 2.69-6 6-6s6 2.69 6 6v6.32h6.32c3.32 0 6 2.69 6 6zm-203.94 0c0 3.31-2.69 6-6 6h-24.64c-3.31 0-6-2.69-6-6s2.69-6 6-6h24.64c3.31 0 6 2.69 6 6zm98.04 59c1.1 1.74 1.23 3.93.34 5.79l-10.87 22.8a6 6 0 0 1-5.42 3.42c-.87 0-1.75-.19-2.58-.58a6 6 0 0 1-2.83-8l6.78-14.21h-9.12c-1.98 0-3.84-.98-4.95-2.62s-1.36-3.72-.64-5.57l8.94-22.92a6.002 6.002 0 0 1 7.77-3.41 6.002 6.002 0 0 1 3.41 7.77l-5.75 14.73h9.84c2.06 0 3.98 1.06 5.08 2.8zM256 247.7c-28.08 0-50.93 22.85-50.93 50.93s22.85 50.93 50.93 50.93 50.93-22.85 50.93-50.93S284.08 247.7 256 247.7zm0 89.85c-21.46 0-38.93-17.46-38.93-38.93S234.54 259.7 256 259.7s38.93 17.46 38.93 38.93-17.47 38.92-38.93 38.92zM102.14 86.29c0 3.71 2.08 7.01 5.42 8.62s7.22 1.17 10.12-1.14l42.13-33.64c1.43-1.14 2.26-2.86 2.26-4.69s-.83-3.55-2.26-4.69L117.67 17.1c-2.9-2.31-6.77-2.75-10.12-1.14-3.34 1.61-5.42 4.91-5.42 8.62V35h-45.5C33.68 34.99 15 53.67 15 76.63V152c0 11.72 9.53 21.25 21.25 21.25S57.5 163.72 57.5 152V83.38a5.89 5.89 0 0 1 5.88-5.88h38.75v8.79zM63.39 65.5c-9.86 0-17.88 8.02-17.88 17.88V152c0 5.1-4.15 9.25-9.25 9.25S27 157.11 27 152V76.63c0-16.34 13.3-29.64 29.64-29.64h51.5c3.31 0 6-2.69 6-6V29.64l32.3 25.8-32.3 25.8V71.5c0-3.31-2.69-6-6-6zm412.36 273.24c-11.72 0-21.25 9.53-21.25 21.25v68.63a5.89 5.89 0 0 1-5.88 5.88h-38.75v-8.8c0-3.71-2.08-7.01-5.42-8.62s-7.22-1.17-10.12 1.14l-42.13 33.64c-1.43 1.14-2.26 2.86-2.26 4.69s.83 3.55 2.26 4.69l42.13 33.64a9.502 9.502 0 0 0 5.95 2.1c1.41 0 2.83-.32 4.17-.96 3.34-1.61 5.42-4.91 5.42-8.62v-10.42h45.5c22.96 0 41.64-18.68 41.64-41.64V360c-.01-11.72-9.54-21.26-21.26-21.26zm9.25 96.63c0 16.34-13.3 29.64-29.64 29.64h-51.5c-3.31 0-6 2.69-6 6v11.35l-32.3-25.8 32.3-25.8v9.73c0 3.31 2.69 6 6 6h44.75c9.86 0 17.88-8.02 17.88-17.88V360c0-5.1 4.15-9.25 9.25-9.25S485 354.89 485 360z" fill="#fc8211" opacity="1" data-original="#000000" class=""></path></g></svg>