<svg xmlns="http://www.w3.org/2000/svg" version="1.1" xmlns:xlink="http://www.w3.org/1999/xlink" width="512" height="512" x="0" y="0" viewBox="0 0 100 100" style="enable-background:new 0 0 512 512" xml:space="preserve" class=""><g><path d="M10.423 83.691h79.139c4.371 0 7.923-3.551 7.923-7.923v-39.56L58.143 62.45a14.682 14.682 0 0 1-16.301 0L2.5 36.207v39.561c0 4.372 3.552 7.923 7.923 7.923z" fill="#fca311" opacity="1" data-original="#000000" class=""></path><path d="M89.562 16.309H10.423c-4.371 0-7.923 3.551-7.923 7.923v3.855l43.106 28.732a7.858 7.858 0 0 0 8.788 0L97.5 28.087v-3.84c-.015-4.372-3.567-7.938-7.938-7.938z" fill="#fca311" opacity="1" data-original="#000000" class=""></path></g></svg>