<svg xmlns="http://www.w3.org/2000/svg" version="1.1" xmlns:xlink="http://www.w3.org/1999/xlink" width="512" height="512" x="0" y="0" viewBox="0 0 512 512" style="enable-background:new 0 0 512 512" xml:space="preserve" class=""><g><path d="M404.831 94.739c-6.853 0-12.43 5.577-12.43 12.43s5.577 12.43 12.43 12.43c6.854 0 12.43-5.576 12.43-12.43s-5.576-12.43-12.43-12.43zM256 145.804c-60.762 0-110.196 49.434-110.196 110.196S195.238 366.197 256 366.197c60.763 0 110.197-49.434 110.197-110.196S316.763 145.804 256 145.804z" fill="#fc8211" opacity="1" data-original="#000000" class=""></path><path d="M371.643 0H140.357C62.964 0 0 62.964 0 140.358v231.285C0 449.037 62.964 512 140.357 512h231.286C449.037 512 512 449.036 512 371.643V140.358C512 62.964 449.037 0 371.643 0zM256 396.432c-77.435 0-140.431-62.997-140.431-140.432S178.566 115.57 256 115.57 396.432 178.566 396.432 256 333.434 396.432 256 396.432zm148.831-246.596c-23.526 0-42.666-19.14-42.666-42.666 0-23.526 19.14-42.667 42.666-42.667 23.526 0 42.666 19.14 42.666 42.666s-19.14 42.667-42.666 42.667z" fill="#fc8211" opacity="1" data-original="#000000" class=""></path></g></svg>