<svg xmlns="http://www.w3.org/2000/svg" version="1.1" xmlns:xlink="http://www.w3.org/1999/xlink" width="512" height="512" x="0" y="0" viewBox="0 0 512 512" style="enable-background:new 0 0 512 512" xml:space="preserve" class=""><g><path d="M393.79 292.98c-11.82 0-21.44 9.62-21.44 21.44s9.62 21.44 21.44 21.44 21.44-9.62 21.44-21.44c-.01-11.82-9.62-21.44-21.44-21.44zm0 30.87c-5.2 0-9.44-4.23-9.44-9.44 0-5.2 4.23-9.44 9.44-9.44s9.44 4.23 9.44 9.44c-.01 5.21-4.24 9.44-9.44 9.44zm55.34-178.88c-3.54-2.91-7.99-4.27-12.53-3.83l-6.8.66v-12.33l10.11-.98c4.54-.44 8.65-2.63 11.56-6.17s4.27-7.99 3.83-12.53-2.63-8.65-6.17-11.56-7.98-4.28-12.53-3.83l-6.8.66v-6.81c0-7.07-5.75-12.83-12.83-12.83h-2.13V26.65c0-6.42-5.22-11.65-11.65-11.65h-18.81c-6.42 0-11.65 5.22-11.65 11.65V75.4h-2.13c-7.07 0-12.83 5.76-12.83 12.83v13.8l-10.11.98c-9.4.91-16.31 9.3-15.39 18.7.86 8.84 8.33 15.48 17.04 15.47.55 0 1.11-.03 1.67-.08l6.8-.66v12.33l-10.11.98c-9.4.91-16.31 9.3-15.39 18.7.86 8.84 8.33 15.47 17.04 15.47.55 0 1.11-.03 1.67-.08l6.8-.66v7.64h-2.21c-3.31 0-6 2.69-6 6v20.39c0 5.81 3.64 10.77 8.75 12.76v7.81c0 6.75 4.86 12.37 11.26 13.58v24.67a45.673 45.673 0 0 0-17.23 19.89h-34.78V285.1c0-3.31-2.69-6-6-6h-20.92c-.41-9.41-8.18-16.95-17.69-16.95h-9.81v-98.22c0-17.72-14.41-32.13-32.13-32.13H88.75c-17.72 0-32.13 14.41-32.13 32.13v300.9c0 17.72 14.41 32.13 32.13 32.13h142.27c17.72 0 32.13-14.41 32.13-32.13v-98.22h9.81c9.51 0 17.28-7.54 17.69-16.95h20.92c3.31 0 6-2.69 6-6v-10.82h34.78c7.09 15.84 22.99 26.92 41.44 26.92 25.02 0 45.38-20.36 45.38-45.38 0-16.13-8.46-30.31-21.17-38.36v-24.67c6.4-1.21 11.26-6.83 11.26-13.58v-7.81c5.12-1.99 8.76-6.95 8.76-12.76v-20.39c0-3.31-2.69-6-6-6h-2.21v-14.63l10.11-.98c4.54-.44 8.65-2.63 11.56-6.17s4.27-7.99 3.83-12.53c-.45-4.52-2.64-8.62-6.18-11.53zm-343.56 60.01 18.71-18.71v33.83l-18.71 18.71zm30.71 83.99 19.37 19.37c1.12 1.12 2.65 1.76 4.24 1.76s3.12-.63 4.24-1.76l19.37-19.37v33.83l-23.61 23.61-23.61-23.61zM183.5 272l-23.61 23.61L136.28 272v-33.83l19.37 19.37c1.12 1.12 2.65 1.76 4.24 1.76s3.12-.63 4.24-1.76l19.37-19.37zm-47.22 67.77 19.37 19.37c1.13 1.12 2.65 1.76 4.24 1.76s3.12-.63 4.24-1.76l19.37-19.37v33.83l-23.61 23.61-23.61-23.61zm59.22-1.1 18.71 18.71v33.83L195.5 372.5zm0-16.97v-33.83l18.71 18.71v33.83zm0-50.8v-33.83l18.71 18.71v33.83zm-12-49.7-23.61 23.61-23.61-23.61v-33.83l19.37 19.37c1.12 1.12 2.65 1.76 4.24 1.76s3.12-.63 4.24-1.76l19.37-19.37zm-77.93 34.58 18.71-18.71v33.83l-18.71 18.71zm0 50.8 18.71-18.71v33.83l-18.71 18.71zm0 50.8 18.71-18.71v33.83l-18.71 18.71zm0 50.8 18.71-18.71v33.83l-18.71 18.71zm30.71-17.61 19.37 19.37c1.12 1.12 2.65 1.76 4.24 1.76s3.12-.63 4.24-1.76l19.37-19.37v33.83l-23.61 23.61-23.61-23.61zm59.22-1.1 18.71 18.71v33.83L195.5 423.3zm18.7-150.66-18.7-18.71v-33.83l18.71 18.71v33.83zm-30.7-68.41-23.61 23.61-23.61-23.61v-26.57h47.22zm-59.22-1.1-18.71 18.71v-44.18h18.71zm-18.71 289.68 18.71-18.71V485h-18.71zm30.71-17.61 19.37 19.37c1.12 1.12 2.65 1.76 4.24 1.76s3.12-.63 4.24-1.76l19.37-19.37V485h-47.22zm59.22-1.1 18.71 18.71V485H195.5zm18.7-252.26-18.7-18.71v-25.47h18.71v44.18zM68.62 464.87v-300.9c0-11.1 9.03-20.13 20.13-20.13h4.82V485h-4.82c-11.1 0-20.13-9.03-20.13-20.13zm182.53 0c0 11.1-9.03 20.13-20.13 20.13h-4.82V143.83h4.82c11.1 0 20.13 9.03 20.13 20.13zm27.54-115.95c0 3.16-2.57 5.73-5.73 5.73h-9.81v-80.46h9.81c3.16 0 5.73 2.57 5.73 5.73zm26.88-11.22h-14.88v-46.56h14.88zM384.74 27h18.1v48.4h-18.1zm-14.97 61.23c0-.44.39-.83.83-.83h46.37c.44 0 .83.39.83.83v7.98l-48.03 4.66zm-19.95 36.94a5.129 5.129 0 1 1-.99-10.21l88.93-8.63c1.35-.13 2.68.28 3.75 1.16 1.06.88 1.72 2.1 1.85 3.45s-.28 2.68-1.16 3.75-2.1 1.72-3.45 1.85zm19.95 10.12 48.03-4.66v12.33l-48.03 4.66zm56.24 67.55v14.39c0 .92-.78 1.7-1.7 1.7h-61.04c-.92 0-1.7-.78-1.7-1.7v-14.39zm-10.58 36.8h-43.28c-.99 0-1.83-.84-1.83-1.83v-6.87h46.94v6.87c0 .99-.84 1.83-1.83 1.83zm-97.86 81.24v-12.93h31.3c-.3 2.11-.47 4.27-.47 6.46s.17 4.35.47 6.46h-31.3zm109.6-6.46c0 18.41-14.97 33.38-33.38 33.38s-33.38-14.97-33.38-33.38 14.97-33.38 33.38-33.38 33.38 14.97 33.38 33.38zm-33.38-45.38c-4.23 0-8.32.59-12.21 1.68v-19.08h24.41v19.08a45.04 45.04 0 0 0-12.2-1.68zm24.01-78.2h-48.03v-8.81l48.03-4.66zm24.4-29.41c-.88 1.06-2.1 1.72-3.45 1.85l-88.93 8.63c-2.8.28-5.33-1.79-5.6-4.61-.27-2.81 1.79-5.33 4.61-5.6l88.93-8.63c1.35-.13 2.68.28 3.75 1.16 1.06.88 1.72 2.1 1.85 3.45.13 1.36-.28 2.69-1.16 3.75z" fill="#fc8211" opacity="1" data-original="#000000"></path></g></svg>