<svg xmlns="http://www.w3.org/2000/svg" version="1.1" xmlns:xlink="http://www.w3.org/1999/xlink" width="512" height="512" x="0" y="0" viewBox="0 0 512 512" style="enable-background:new 0 0 512 512" xml:space="preserve" class=""><g><path d="M134.35 315.55c0 8.65 7.04 15.69 15.69 15.69H271.5c1.24 0 2.44-.38 3.45-1.09l106.01-74.65 8.9 4.2c2.27 1.07 4.96.62 6.75-1.13l12-11.72c1.23-1.2 1.88-2.87 1.8-4.58s-.9-3.31-2.24-4.39l-20.39-16.37a5.999 5.999 0 0 0-5.68-1l-96.44 32.65-27.9-25.73a6.014 6.014 0 0 0-4.07-1.59h-28.31v-12.52h10.18c3.31 0 6-2.69 6-6v-27.76c0-3.31-2.69-6-6-6H173.6c-3.31 0-6 2.69-6 6v27.76c0 3.31 2.69 6 6 6h10.18v12.52h-16.37l-31.23-31.23c-10.22-10.22-26.85-10.22-37.08 0-10.22 10.22-10.22 26.85 0 37.07l35.23 35.23v48.64zm145.8-51.18a5.977 5.977 0 0 0 5.99 1.27l96.7-32.73 12.55 10.08-4.17 4.07-8.29-3.91a6.021 6.021 0 0 0-6.02.52L269.6 319.24H150.04c-2 0-3.69-1.69-3.69-3.69V241.5c0-2 1.69-3.69 3.69-3.69h101.32zm-100.53-78.83h49.96v15.76h-49.96zm16.18 27.75h17.59v12.52H195.8zm-88.19 9.88c-5.54-5.54-5.54-14.56 0-20.1s14.56-5.54 20.1 0l22.75 22.75h-.42c-8.65 0-15.69 7.04-15.69 15.69v8.41zm291.3 50.26a6 6 0 0 0-10.1 0c-1.64 2.55-3.87 5.5-6.24 8.62-6.82 9-14.56 19.2-15.36 29.26-.01.16-.02.32-.02.48 0 14.71 11.96 26.67 26.67 26.67s26.67-11.96 26.67-26.67c0-.16-.01-.32-.02-.48-.76-9.58-8.03-19.32-15.07-28.74-2.44-3.26-4.74-6.35-6.53-9.14zm-5.05 53.03c-8.01 0-14.54-6.45-14.67-14.42.66-6.54 7.46-15.51 12.94-22.73.57-.76 1.14-1.5 1.69-2.24.65.88 1.32 1.78 2 2.69 5.66 7.59 12.07 16.17 12.7 22.29-.12 7.97-6.65 14.41-14.66 14.41zm-322.07 48.5c1.8 2.78 1 6.5-1.78 8.3a5.994 5.994 0 0 1-8.29-1.78C37.53 344.1 24.75 300.71 24.75 256c0-61.77 24.05-119.84 67.73-163.52S194.23 24.75 256 24.75c39.65 0 78.28 10.07 112.58 29.22l-8.42-31.42a6 6 0 0 1 11.59-3.11l12.26 45.76a6 6 0 0 1-4.24 7.35l-45.76 12.26c-.52.14-1.04.21-1.56.21-2.65 0-5.07-1.77-5.79-4.45a6 6 0 0 1 4.24-7.35l32.13-8.61C330.44 46.35 293.71 36.75 256 36.75 135.11 36.75 36.75 135.11 36.75 256c0 42.4 12.12 83.53 35.04 118.96zM487.25 256c0 61.77-24.05 119.84-67.73 163.52S317.77 487.25 256 487.25c-39.62 0-78.28-10.07-112.58-29.21l8.42 31.41a6 6 0 0 1-4.24 7.35c-.52.14-1.04.21-1.56.21-2.65 0-5.07-1.77-5.79-4.45l-12.26-45.76c-.41-1.54-.2-3.17.6-4.55s2.11-2.38 3.64-2.8l45.76-12.26a6 6 0 0 1 3.11 11.59l-32.14 8.61c32.59 18.26 69.36 27.86 107.04 27.86 120.89 0 219.25-98.35 219.25-219.25 0-42.4-12.12-83.53-35.04-118.96-1.8-2.78-1-6.5 1.78-8.3s6.5-1 8.3 1.78c24.18 37.38 36.96 80.77 36.96 125.48z" fill="#fc8211" opacity="1" data-original="#000000"></path></g></svg>