<svg xmlns="http://www.w3.org/2000/svg" version="1.1" xmlns:xlink="http://www.w3.org/1999/xlink" width="512" height="512" x="0" y="0" viewBox="0 0 64 64" style="enable-background:new 0 0 512 512" xml:space="preserve" class=""><g><g fill="#3d4753"><path d="M49.861 30.774c-1.584-.158-5.069-.158-5.069-2.376 0-3.009 4.435-6.969 11.563-11.246 2.217-1.426 6.812-3.643 6.812-6.653 0-2.376-1.743-4.118-5.386-3.643-3.485.475-8.871 2.851-15.998 8.87-7.445 6.178-14.414 16.474-14.414 26.611 0 10.296 6.969 20.592 18.216 20.592 9.028 0 16.79-6.811 16.79-16.157-.001-7.128-4.911-15.364-12.514-15.998z" fill="#fc8211" opacity="1" data-original="#3d4753" class=""></path><path d="M27.594 26.32a11.158 11.158 0 0 0-4.268-1.253c-1.584-.158-5.069-.158-5.069-2.376 0-3.009 4.435-6.969 11.563-11.246 2.218-1.426 6.811-3.643 6.811-6.653 0-2.376-1.743-4.118-5.386-3.643-3.485.475-8.871 2.851-15.998 8.87C7.803 16.197.833 26.493.833 36.631c0 10.296 6.969 20.592 18.216 20.592a17.52 17.52 0 0 0 7.441-1.649c-2.219-4.012-3.402-8.654-3.402-13.236.001-5.658 1.823-11.145 4.506-16.018z" fill="#fc8211" opacity="1" data-original="#3d4753" class=""></path></g></g></svg>