<svg xmlns="http://www.w3.org/2000/svg" version="1.1" xmlns:xlink="http://www.w3.org/1999/xlink" width="512" height="512" x="0" y="0" viewBox="0 0 512 512" style="enable-background:new 0 0 512 512" xml:space="preserve" class=""><g><path d="M215.17 175.61c-21.81 0-39.56 17.75-39.56 39.56s17.75 39.56 39.56 39.56 39.56-17.75 39.56-39.56-17.74-39.56-39.56-39.56zm0 67.12c-15.2 0-27.56-12.36-27.56-27.56s12.36-27.56 27.56-27.56 27.56 12.36 27.56 27.56-12.36 27.56-27.56 27.56zm275.17 202.42-65.24-74.14a90.168 90.168 0 0 0 17.65-42.09c3.45-24.02-2.67-47.95-17.22-67.38a91.389 91.389 0 0 0-12.82-13.86c1.74-10.69 2.64-21.6 2.64-32.51C415.34 104.8 325.55 15 215.17 15S15 104.8 15 215.17s89.8 200.17 200.17 200.17c31.46 0 62.68-7.48 90.54-21.63 10.16 6.18 21.69 10.45 34.19 12.24 4.36.62 8.68.93 12.96.93 11.3 0 22.25-2.13 32.4-6.03l52.8 83.45c4.06 6.41 10.6 10.73 18.42 12.17 1.91.35 3.85.52 5.8.52 7.37 0 14.87-2.45 20.88-6.95 7.61-5.7 12.72-14.6 13.67-23.8.83-7.91-1.48-15.4-6.49-21.09zm-269.17-41.91v-21.61c0-3.31-2.69-6-6-6s-6 2.69-6 6v21.6c-29.87-.94-58.01-8.87-82.82-22.22l10.79-18.69c1.66-2.87.67-6.54-2.2-8.2a6.012 6.012 0 0 0-8.2 2.2L115.97 375a189.53 189.53 0 0 1-60.62-60.62l18.67-10.78a6.012 6.012 0 0 0 2.2-8.2 6.012 6.012 0 0 0-8.2-2.2L49.32 304c-13.34-24.82-21.28-52.95-22.22-82.82h21.6c3.31 0 6-2.69 6-6s-2.69-6-6-6H27.1c.94-29.87 8.87-58.01 22.22-82.82l18.69 10.79c.95.54 1.98.8 2.99.8 2.07 0 4.09-1.08 5.2-3 1.66-2.87.67-6.54-2.2-8.2l-18.67-10.78a189.53 189.53 0 0 1 60.62-60.62l10.78 18.67c1.11 1.92 3.13 3 5.2 3 1.02 0 2.05-.26 2.99-.8a6.012 6.012 0 0 0 2.2-8.2l-10.79-18.69c24.82-13.34 52.95-21.28 82.82-22.22v21.6c0 3.31 2.69 6 6 6s6-2.69 6-6v-21.6c29.87.94 58.01 8.87 82.82 22.22l-10.79 18.69c-1.66 2.87-.67 6.54 2.2 8.2.95.54 1.98.8 2.99.8 2.07 0 4.09-1.08 5.2-3l10.78-18.67a189.53 189.53 0 0 1 60.62 60.62l-18.67 10.78a6.012 6.012 0 0 0-2.2 8.2c1.11 1.92 3.13 3 5.2 3 1.02 0 2.05-.26 2.99-.8l18.69-10.79c13.34 24.82 21.28 52.95 22.22 82.82h-21.6c-3.31 0-6 2.69-6 6s2.69 6 6 6h21.6c-.19 6.12-.68 12.23-1.46 18.28-10.79-6.91-23.01-11.5-36.07-13.38-3.37-.48-6.72-.77-10.05-.87.23-3.34.37-6.69.37-10.03 0-77.67-63.19-140.86-140.86-140.86S74.32 137.5 74.32 215.17s63.19 140.86 140.86 140.86c17.99 0 35.43-3.33 51.93-9.89a91.457 91.457 0 0 0 27.53 39.63c-22.93 10.67-48.04 16.66-73.47 17.47zm15.11-80.14v-45.64c0-1.99 1.06-3.57 2.9-4.33s3.7-.39 5.11 1.02l20.26 20.26c-.69 2.85-1.26 5.75-1.69 8.71-.56 3.89-.86 7.75-.92 11.58-8.23 3.88-16.81 6.68-25.66 8.4zm32.43-41.51-15.94-15.94c-4.86-4.86-11.83-6.25-18.19-3.62-6.35 2.63-10.3 8.54-10.3 15.42v47.28c-3.01.24-6.05.37-9.11.37-3.07 0-6.1-.13-9.11-.38v-47.28c0-6.88-3.95-12.79-10.3-15.42s-13.32-1.25-18.19 3.62l-33.39 33.39c-4.64-3.93-8.95-8.24-12.88-12.88l33.39-33.39c4.87-4.86 6.25-11.83 3.62-18.19-2.63-6.35-8.54-10.3-15.42-10.3h-47.27a109.709 109.709 0 0 1 0-18.22h47.27c6.88 0 12.79-3.95 15.42-10.3 2.63-6.36 1.25-13.33-3.62-18.19l-33.39-33.39c3.93-4.64 8.24-8.95 12.88-12.88l33.39 33.39c3.23 3.23 7.4 4.93 11.7 4.93 2.17 0 4.36-.43 6.49-1.31 6.35-2.63 10.3-8.54 10.3-15.42v-47.27a109.709 109.709 0 0 1 18.22 0v47.27c0 6.88 3.95 12.79 10.3 15.42 2.13.88 4.33 1.31 6.5 1.31 4.3 0 8.46-1.7 11.69-4.93l33.39-33.39c4.64 3.93 8.95 8.24 12.88 12.88l-33.39 33.39c-4.86 4.87-6.25 11.84-3.62 18.19s8.54 10.3 15.42 10.3h47.28c.25 3 .38 6.04.38 9.11 0 3.04-.13 6.08-.37 9.11h-47.28c-6.88 0-12.79 3.95-15.42 10.3-2.63 6.36-1.25 13.33 3.62 18.19l12.08 12.08a90.253 90.253 0 0 0-9.03 16.75zm-74.65 41.48a109.423 109.423 0 0 1-40.23-16.7l32.23-32.23c1.41-1.41 3.27-1.78 5.11-1.02s2.9 2.34 2.9 4.33v45.62zm-70.08-169.24 32.23 32.22c1.41 1.41 1.78 3.27 1.02 5.11s-2.34 2.89-4.33 2.89h-45.61c2.85-14.64 8.62-28.26 16.69-40.22zm-16.71 82.45h45.61c1.99 0 3.57 1.06 4.33 2.9s.39 3.7-1.02 5.11l-32.23 32.23a109.864 109.864 0 0 1-16.69-40.24zm46.56-112.3a109.325 109.325 0 0 1 40.23-16.7v45.61c0 1.99-1.06 3.57-2.9 4.33s-3.7.39-5.11-1.02zm82.45-16.71c14.65 2.86 28.28 8.64 40.23 16.7l-32.23 32.23c-1.41 1.41-3.27 1.78-5.11 1.02s-2.9-2.34-2.9-4.33v-45.62zm86.79 86.79h-45.61c-1.99 0-3.57-1.06-4.33-2.9s-.39-3.7 1.02-5.11l32.23-32.23c8.05 11.97 13.83 25.59 16.69 40.24zm-37.87 61.29-11.06-11.06c-1.41-1.41-1.78-3.27-1.02-5.11s2.34-2.9 4.33-2.9h31.85a91.777 91.777 0 0 0-24.1 19.07zM215.17 93.23c-67.24 0-121.94 54.7-121.94 121.94s54.7 121.94 121.94 121.94c16.57 0 32.5-3.24 47.5-9.61.3 2.36.69 4.7 1.17 7.01-15.44 6.31-31.78 9.52-48.67 9.52-71.05 0-128.86-57.8-128.86-128.86s57.8-128.86 128.86-128.86 128.86 57.8 128.86 128.86c0 3.48-.15 6.98-.43 10.44-2.37.24-4.72.57-7.04 1 .35-3.8.55-7.62.55-11.44 0-67.24-54.7-121.94-121.94-121.94zm126.44 300.85c-20.85-2.99-39.29-13.92-51.92-30.78s-17.94-37.63-14.94-58.48c2.99-20.85 13.92-39.29 30.78-51.92 13.79-10.33 30.19-15.76 47.11-15.76 3.77 0 7.57.27 11.37.82 20.85 2.99 39.29 13.92 51.92 30.78s17.94 37.63 14.94 58.48c-2.99 20.85-13.92 39.29-30.78 51.92-16.87 12.62-37.63 17.93-58.48 14.94zm75.51-13.96 12.67 14.39-23.3 17.45-10.25-16.2a91.213 91.213 0 0 0 20.88-15.64zm67.78 84.89c-.61 5.93-3.95 11.7-8.93 15.43s-11.45 5.31-17.32 4.23c-3.18-.58-7.57-2.24-10.45-6.78l-35.28-55.75 24.82-18.59 43.59 49.53c3.55 4.04 3.9 8.71 3.57 11.93zm-80.19-187.87c-10.38-13.86-25.55-22.85-42.69-25.31s-34.22 1.91-48.09 12.29c-13.86 10.38-22.85 25.54-25.31 42.69s1.9 34.22 12.29 48.09c10.38 13.86 25.55 22.85 42.69 25.31 3.12.45 6.25.67 9.35.67 13.92 0 27.4-4.47 38.74-12.96 13.86-10.38 22.85-25.55 25.31-42.69 2.45-17.15-1.91-34.23-12.29-48.09zm.41 46.38c-2 13.97-9.33 26.33-20.63 34.79s-25.22 12.02-39.19 10.01c-13.97-2-26.33-9.33-34.79-20.63s-12.02-25.21-10.01-39.19c2-13.97 9.33-26.33 20.63-34.79 9.24-6.92 20.23-10.56 31.57-10.56 2.53 0 5.07.18 7.62.55 28.84 4.14 48.93 30.97 44.8 59.82z" fill="#fc8211" opacity="1" data-original="#000000" class=""></path></g></svg>