<svg xmlns="http://www.w3.org/2000/svg" version="1.1" xmlns:xlink="http://www.w3.org/1999/xlink" width="512" height="512" x="0" y="0" viewBox="0 0 2048 2048" style="enable-background:new 0 0 512 512" xml:space="preserve" fill-rule="evenodd" class=""><g><path fill="#d42927" d="M1664 1141.42v452.993c0 108.669-94.252 197.587-209.41 197.587H593.407c-115.243 0-209.41-88.918-209.41-197.587V1141.42c0-108.676 94.167-197.588 209.41-197.588h861.183c115.158 0 209.41 88.912 209.41 197.588z" opacity="1" data-original="#d42927"></path><g fill="#fffffe"><path d="M473.002 1095.34v69.5l88.835.24v478.5h88.997v-477.16h106.752v-70.68z" fill="#fffffe" opacity="1" data-original="#fffffe" class=""></path><path d="m740.157 1237.5.26 252.503c.085 38.739-.92 67.584.339 80.743 2.153 23.173 1.324 50.155 22.828 65.581 40.08 28.84 116.838-4.33 135.997-45.589l-.17 52.671 71.509.085-.084-405.995h-89.004v254.825c0 36.846 2.244 55.254-.084 61.76-7.251 19.733-39.743 40.747-52.503 2.16-2.086-6.744-.254-27.159-.254-62.166l-.32-256.579h-88.514zM1024.26 1095.83l-.43 544.258 73.087-1.089 6.658-33.919c93.418 85.757 152.173 27.007 151.999-75.736l-.146-212.179c-.085-80.748-60.588-129.15-142.678-63.828l.423-157.676-88.912.17zm87.4 210.753c0-17.58 17.513-32.002 38.848-32.002 21.503 0 38.999 14.422 38.999 32.002v238.08c0 17.58-17.496 31.918-38.999 31.918-21.335 0-38.848-14.339-38.848-31.918zM1357.91 1235.09c-16.913 12.162-29.825 28.416-37.336 50.326-7.57 21.824-11.326 51.673-11.326 89.668v126.418c0 210.239 255.339 180.504 224.922-.34l-66.756.425a274.042 274.042 0 0 0-.17 9.003v37.251c0 19.902-16.49 36.072-36.5 36.072h-13.08c-19.987 0-36.502-16.17-36.502-36.072v-98.007h152.831v-57.491c0-42.01-1.087-84.014-4.499-108.1-10.987-75.99-117.656-88.084-171.585-49.153zm70.016 55.92c21.824 0 39.748 17.833 39.748 39.572l-.92 48.917h-84.328l.405-48.917c0-21.74 17.834-39.573 39.676-39.573h5.419z" fill="#fffffe" opacity="1" data-original="#fffffe" class=""></path></g><path d="m694.162 533.907.176 323.437h93.587l.085-323.582 110.573-277.187H796.245l-58.839 205.847-59.584-206.423H576.488zM901.244 481.411c-6.652 22.846-10.088 54.42-10.088 94.93v111.747c0 36.906 1.748 64.657 5.504 83.156 3.755 18.432 9.917 34.263 18.667 47.253 8.66 13.014 20.846 22.846 36.586 29.244 15.657 6.598 34.754 9.67 57.346 9.67 20.241 0 38.164-3.652 53.82-11.333 15.512-7.486 28.247-19.242 38.165-35.068 10.093-15.916 16.575-32.92 19.587-51.268 3.006-18.239 4.584-47.078 4.584-86.161V566.829c0-30.913-1.663-53.827-4.929-69.078-3.326-14.997-9.403-29.674-18.407-43.927-8.835-14.247-21.505-25.749-38.08-34.579-16.425-8.835-36.078-13.334-59.01-13.334-27.327 0-49.75 6.93-67.238 20.755-17.58 13.763-29.765 32.002-36.507 54.745zm67.584 262.505V519.34c0-23.832 17.84-43.354 39.513-43.354 21.654 0 39.318 19.522 39.318 43.354v224.576c0 23.91-17.664 43.413-39.319 43.413-21.673 0-39.512-19.503-39.512-43.413zM1181.59 422.25v284.583c0 36.247.66 60.418 1.747 72.664 1.089 12.16 3.907 23.832 8.49 35.177 4.59 11.072 11.671 20.161 21.42 26.989 9.494 6.76 21.764 10.093 36.416 10.093 12.844 0 24.171-3.417 34.095-10.583 9.832-7.166 18.153-17.749 24.914-31.917l-1.663 34.904h99.242V422.25h-78.082v328.34c0 17.834-14.677 32.324-32.595 32.324-17.815 0-32.491-14.49-32.491-32.323V422.25h-81.493z" fill="#ffffff" opacity="1" data-original="#000000" class=""></path></g></svg>